<svg width="64" height="64" viewBox="0 0 64 64" fill="none" xmlns="http://www.w3.org/2000/svg">
<path d="M32.3649 6.00046C17.7424 5.80296 5.80492 17.7405 6.00242 32.363C6.19742 46.3867 17.6162 57.8055 31.6399 58.0005C46.2649 58.2005 58.1999 46.263 57.9999 31.6405C57.8074 17.6142 46.3887 6.19546 32.3649 6.00046ZM30.2662 30.0592L36.7099 22.6842C37.059 22.2847 37.5525 22.0403 38.0818 22.0047C38.6111 21.969 39.1329 22.1451 39.5324 22.4942C39.9319 22.8433 40.1763 23.3368 40.212 23.8661C40.2476 24.3954 40.0715 24.9172 39.7224 25.3167L33.2787 32.6917C33.1058 32.8895 32.8957 33.0513 32.6603 33.1679C32.4249 33.2845 32.1689 33.3536 31.9068 33.3713C31.6447 33.3889 31.3817 33.3548 31.1328 33.2708C30.8839 33.1868 30.654 33.0546 30.4562 32.8817C30.2584 32.7089 30.0965 32.4987 29.9799 32.2633C29.8633 32.028 29.7943 31.7719 29.7766 31.5098C29.759 31.2477 29.7931 30.9847 29.8771 30.7358C29.9611 30.4869 30.0933 30.257 30.2662 30.0592ZM25.4087 41.4155C25.0336 41.7903 24.5251 42.0008 23.9949 42.0008C23.4647 42.0008 22.9562 41.7903 22.5812 41.4155L16.5874 35.4155C16.4018 35.2296 16.2545 35.0091 16.1541 34.7664C16.0537 34.5236 16.0021 34.2635 16.0022 34.0008C16.0023 33.7382 16.0542 33.4781 16.1548 33.2354C16.2554 32.9928 16.4028 32.7724 16.5887 32.5867C16.7745 32.4011 16.9951 32.2538 17.2378 32.1534C17.4805 32.053 17.7406 32.0014 18.0033 32.0015C18.266 32.0016 18.5261 32.0535 18.7687 32.1541C19.0113 32.2547 19.2318 32.4021 19.4174 32.588L25.4174 38.588C25.791 38.9642 26 39.4733 25.9984 40.0035C25.9967 40.5337 25.7846 41.0416 25.4087 41.4155ZM47.5087 25.3167L33.5237 41.3167C33.3435 41.5232 33.1228 41.6904 32.8753 41.808C32.6278 41.9256 32.3588 41.9911 32.0849 42.0005H32.0174C31.7546 42.0005 31.4944 41.9487 31.2516 41.8482C31.0088 41.7476 30.7882 41.6001 30.6024 41.4142L24.6099 35.4142C24.235 35.0389 24.0245 34.5301 24.0247 33.9996C24.0249 33.4691 24.2359 32.9604 24.6112 32.5855C24.9864 32.2105 25.4953 32 26.0258 32.0002C26.5563 32.0005 27.065 32.2114 27.4399 32.5867L31.1649 36.3155C31.2618 36.4123 31.3775 36.4883 31.5048 36.5386C31.6322 36.5889 31.7686 36.6125 31.9055 36.6079C32.0424 36.6033 32.1769 36.5707 32.3006 36.512C32.4244 36.4533 32.5348 36.3698 32.6249 36.2667L44.4999 22.6842C44.849 22.2847 45.3425 22.0403 45.8718 22.0047C46.4011 21.969 46.9229 22.1451 47.3224 22.4942C47.7219 22.8433 47.9663 23.3368 48.002 23.8661C48.0376 24.3954 47.8615 24.9172 47.5124 25.3167H47.5087Z" fill="#12B76A"/>
</svg>
