<svg width="37" height="36" viewBox="0 0 37 36" fill="none" xmlns="http://www.w3.org/2000/svg">
<g id="Social icon" clip-path="url(#clip0_515_12738)">
<path id="Vector" d="M36.6666 18C36.6666 8.05887 28.6078 0 18.6666 0C8.72549 0 0.666626 8.05887 0.666626 18C0.666626 26.9842 7.24893 34.431 15.8541 35.7813V23.2031H11.2838V18H15.8541V14.0344C15.8541 9.52313 18.5415 7.03125 22.653 7.03125C24.6217 7.03125 26.6823 7.38281 26.6823 7.38281V11.8125H24.4126C22.1766 11.8125 21.4791 13.2001 21.4791 14.625V18H26.4713L25.6733 23.2031H21.4791V35.7813C30.0843 34.431 36.6666 26.9842 36.6666 18Z" fill="#1877F2"/>
<path id="Vector_2" d="M25.6733 23.2031L26.4713 18H21.4791V14.625C21.4791 13.2015 22.1766 11.8125 24.4126 11.8125H26.6823V7.38281C26.6823 7.38281 24.6224 7.03125 22.653 7.03125C18.5415 7.03125 15.8541 9.52313 15.8541 14.0344V18H11.2838V23.2031H15.8541V35.7813C17.7178 36.0729 19.6155 36.0729 21.4791 35.7813V23.2031H25.6733Z" fill="white"/>
</g>
<defs>
<clipPath id="clip0_515_12738">
<rect width="36" height="36" fill="white" transform="translate(0.666626)"/>
</clipPath>
</defs>
</svg>
