<svg width="36" height="36" viewBox="0 0 36 36" fill="none" xmlns="http://www.w3.org/2000/svg">
<g id="Social icon" clip-path="url(#clip0_515_12737)">
<path id="Vector" d="M35.649 18.4146C35.649 17.191 35.5498 15.9608 35.3382 14.7571H18.36V21.6886H28.0826C27.6791 23.9241 26.3828 25.9017 24.4846 27.1583V31.6558H30.2851C33.6913 28.5208 35.649 23.891 35.649 18.4146Z" fill="#4285F4"/>
<path id="Vector_2" d="M18.3599 36.0012C23.2146 36.0012 27.3087 34.4073 30.2916 31.6558L24.4911 27.1583C22.8773 28.2562 20.7939 28.878 18.3665 28.878C13.6706 28.878 9.68895 25.7099 8.26033 21.4504H2.27466V26.0869C5.33033 32.1651 11.5541 36.0012 18.3599 36.0012Z" fill="#34A853"/>
<path id="Vector_3" d="M8.25379 21.4503C7.4998 19.2148 7.4998 16.7941 8.25379 14.5585V9.92212H2.27474C-0.278266 15.0083 -0.278266 21.0006 2.27474 26.0867L8.25379 21.4503Z" fill="#FBBC04"/>
<path id="Vector_4" d="M18.3599 7.12449C20.9261 7.08481 23.4064 8.05045 25.2649 9.823L30.404 4.68392C27.1499 1.62826 22.831 -0.051699 18.3599 0.001213C11.5541 0.001213 5.33033 3.83733 2.27466 9.92221L8.25371 14.5586C9.67572 10.2926 13.664 7.12449 18.3599 7.12449Z" fill="#EA4335"/>
</g>
<defs>
<clipPath id="clip0_515_12737">
<rect width="36" height="36" fill="white"/>
</clipPath>
</defs>
</svg>
