<svg width="37" height="36" viewBox="0 0 37 36" fill="none" xmlns="http://www.w3.org/2000/svg">
<g id="instagram">
<rect id="bg" x="2.58337" y="2.25" width="31.5" height="31.5" rx="6" fill="url(#paint0_radial_515_12739)"/>
<rect id="bg_2" x="2.58337" y="2.25" width="31.5" height="31.5" rx="6" fill="url(#paint1_radial_515_12739)"/>
<rect id="bg_3" x="2.58337" y="2.25" width="31.5" height="31.5" rx="6" fill="url(#paint2_radial_515_12739)"/>
<g id="instagram_2">
<path d="M26.2084 11.8125C26.2084 12.7445 25.4529 13.5 24.5209 13.5C23.5889 13.5 22.8334 12.7445 22.8334 11.8125C22.8334 10.8805 23.5889 10.125 24.5209 10.125C25.4529 10.125 26.2084 10.8805 26.2084 11.8125Z" fill="white"/>
<path fill-rule="evenodd" clip-rule="evenodd" d="M18.3334 23.625C21.44 23.625 23.9584 21.1066 23.9584 18C23.9584 14.8934 21.44 12.375 18.3334 12.375C15.2268 12.375 12.7084 14.8934 12.7084 18C12.7084 21.1066 15.2268 23.625 18.3334 23.625ZM18.3334 21.375C20.1973 21.375 21.7084 19.864 21.7084 18C21.7084 16.136 20.1973 14.625 18.3334 14.625C16.4694 14.625 14.9584 16.136 14.9584 18C14.9584 19.864 16.4694 21.375 18.3334 21.375Z" fill="white"/>
<path fill-rule="evenodd" clip-rule="evenodd" d="M7.08337 17.55C7.08337 13.7696 7.08337 11.8795 7.81908 10.4356C8.46623 9.16547 9.49884 8.13285 10.7689 7.48571C12.2128 6.75 14.103 6.75 17.8834 6.75H18.7834C22.5637 6.75 24.4539 6.75 25.8978 7.48571C27.1679 8.13285 28.2005 9.16547 28.8477 10.4356C29.5834 11.8795 29.5834 13.7696 29.5834 17.55V18.45C29.5834 22.2304 29.5834 24.1205 28.8477 25.5644C28.2005 26.8345 27.1679 27.8671 25.8978 28.5143C24.4539 29.25 22.5637 29.25 18.7834 29.25H17.8834C14.103 29.25 12.2128 29.25 10.7689 28.5143C9.49884 27.8671 8.46623 26.8345 7.81908 25.5644C7.08337 24.1205 7.08337 22.2304 7.08337 18.45V17.55ZM17.8834 9H18.7834C20.7107 9 22.0208 9.00175 23.0335 9.08449C24.02 9.16509 24.5244 9.31117 24.8763 9.49047C25.7231 9.9219 26.4115 10.6103 26.8429 11.457C27.0222 11.8089 27.1683 12.3134 27.2489 13.2998C27.3316 14.3125 27.3334 15.6227 27.3334 17.55V18.45C27.3334 20.3773 27.3316 21.6875 27.2489 22.7002C27.1683 23.6866 27.0222 24.1911 26.8429 24.543C26.4115 25.3897 25.7231 26.0781 24.8763 26.5095C24.5244 26.6888 24.02 26.8349 23.0335 26.9155C22.0208 26.9983 20.7107 27 18.7834 27H17.8834C15.9561 27 14.6459 26.9983 13.6332 26.9155C12.6468 26.8349 12.1423 26.6888 11.7904 26.5095C10.9437 26.0781 10.2553 25.3897 9.82384 24.543C9.64454 24.1911 9.49846 23.6866 9.41787 22.7002C9.33512 21.6875 9.33337 20.3773 9.33337 18.45V17.55C9.33337 15.6227 9.33512 14.3125 9.41787 13.2998C9.49846 12.3134 9.64454 11.8089 9.82384 11.457C10.2553 10.6103 10.9437 9.9219 11.7904 9.49047C12.1423 9.31117 12.6468 9.16509 13.6332 9.08449C14.6459 9.00175 15.9561 9 17.8834 9Z" fill="white"/>
</g>
</g>
<defs>
<radialGradient id="paint0_radial_515_12739" cx="0" cy="0" r="1" gradientUnits="userSpaceOnUse" gradientTransform="translate(13.8334 25.875) rotate(-55.3758) scale(28.7096)">
<stop stop-color="#B13589"/>
<stop offset="0.79309" stop-color="#C62F94"/>
<stop offset="1" stop-color="#8A3AC8"/>
</radialGradient>
<radialGradient id="paint1_radial_515_12739" cx="0" cy="0" r="1" gradientUnits="userSpaceOnUse" gradientTransform="translate(12.7084 34.875) rotate(-65.1363) scale(25.4185)">
<stop stop-color="#E0E8B7"/>
<stop offset="0.444662" stop-color="#FB8A2E"/>
<stop offset="0.71474" stop-color="#E2425C"/>
<stop offset="1" stop-color="#E2425C" stop-opacity="0"/>
</radialGradient>
<radialGradient id="paint2_radial_515_12739" cx="0" cy="0" r="1" gradientUnits="userSpaceOnUse" gradientTransform="translate(0.895876 3.375) rotate(-8.1301) scale(43.7522 9.35815)">
<stop offset="0.156701" stop-color="#406ADC"/>
<stop offset="0.467799" stop-color="#6A45BE"/>
<stop offset="1" stop-color="#6A45BE" stop-opacity="0"/>
</radialGradient>
</defs>
</svg>
