<?xml version="1.0" standalone="no"?>
<!DOCTYPE svg PUBLIC "-//W3C//DTD SVG 20010904//EN"
 "http://www.w3.org/TR/2001/REC-SVG-20010904/DTD/svg10.dtd">
<svg version="1.0" xmlns="http://www.w3.org/2000/svg"
 width="3292.000000pt" height="1729.000000pt" viewBox="0 0 3292.000000 1729.000000"
 preserveAspectRatio="xMidYMid meet">

<g transform="translate(0.000000,1729.000000) scale(0.100000,-0.100000)"
fill="#000000" stroke="none">
<path d="M19514 14485 c-18 -9 -42 -27 -54 -40 l-21 -23 38 11 c50 13 123 2
165 -26 18 -12 44 -44 58 -72 22 -44 25 -63 25 -155 -1 -145 -2 -147 -65 -105
-73 49 -292 112 -308 89 -4 -5 -28 -26 -55 -47 -83 -67 -111 -152 -127 -389
-5 -79 -10 -151 -10 -162 0 -15 -6 -17 -37 -14 -21 3 -45 8 -54 12 -13 6 -21
-10 -42 -81 -35 -114 -47 -188 -47 -295 0 -233 63 -378 308 -707 74 -98 142
-202 170 -259 l47 -95 0 -176 c0 -338 -56 -468 -313 -733 -86 -88 -129 -139
-121 -143 42 -15 113 -25 177 -25 l73 0 -58 -65 c-110 -122 -207 -311 -239
-465 -15 -75 -37 -323 -59 -665 -8 -132 -17 -261 -20 -287 l-6 -48 49 31 c26
16 65 32 86 36 l38 6 -8 -69 c-4 -38 -8 -152 -7 -254 0 -196 15 -318 53 -431
21 -60 72 -149 77 -133 1 5 9 70 17 144 15 134 39 240 55 240 11 0 65 -118 97
-211 44 -128 73 -266 110 -519 61 -423 107 -592 182 -672 28 -31 42 -28 42 7
0 56 56 295 69 295 4 0 22 -30 39 -67 104 -229 159 -470 171 -753 l6 -155 60
90 c34 50 74 120 90 157 l29 67 91 -177 c99 -194 169 -307 263 -423 53 -66
140 -149 155 -149 3 0 -17 66 -44 148 -95 281 -142 465 -155 608 -13 139 3
123 123 -123 213 -436 314 -701 387 -1013 42 -179 84 -409 101 -545 8 -71 17
-148 20 -170 3 -22 12 -285 20 -585 14 -548 11 -742 -15 -791 -7 -13 -40 -53
-74 -89 -34 -36 -76 -92 -94 -125 l-33 -60 3 48 c2 26 0 47 -5 47 -16 0 -94
-44 -165 -93 -87 -60 -167 -145 -196 -207 -27 -59 -28 -181 -2 -260 21 -64 67
-149 94 -173 18 -16 19 -14 36 58 l17 74 57 -46 c104 -85 266 -138 402 -131
l64 3 17 92 c17 90 47 175 67 186 5 4 12 -32 16 -91 8 -111 30 -228 47 -248
15 -19 89 -18 164 1 195 50 331 182 380 370 20 75 22 233 5 305 -7 30 -45 118
-85 195 -110 217 -110 215 -109 770 1 712 45 1834 89 2309 21 216 43 267 140
312 54 25 98 30 139 14 17 -6 26 -6 26 0 0 16 -104 287 -150 390 -53 121 -124
240 -167 282 l-33 32 90 32 c103 37 180 79 180 98 0 15 -149 161 -228 224 -30
23 -51 42 -47 42 16 0 188 -76 260 -115 180 -98 322 -222 413 -360 47 -72 100
-190 90 -201 -9 -9 -182 57 -265 101 -46 24 -83 42 -83 39 0 -2 16 -57 35
-122 51 -173 101 -383 125 -528 23 -137 25 -283 3 -305 -8 -8 -52 -12 -125
-13 -101 -1 -116 -3 -146 -24 -120 -86 -136 -418 -34 -675 55 -136 140 -249
240 -318 48 -34 141 -69 184 -69 l28 0 0 81 c0 61 3 80 13 76 58 -22 239 -76
362 -107 419 -107 727 -117 913 -30 l67 31 -100 65 c-55 35 -101 68 -102 72
-2 4 39 22 90 41 417 151 903 398 1206 613 l114 81 -139 133 -139 133 50 -14
c421 -121 965 -354 1314 -564 172 -104 267 -174 531 -391 278 -228 396 -319
550 -420 352 -232 690 -330 1144 -330 136 0 317 -16 454 -40 462 -82 796 -325
1136 -827 103 -153 128 -205 134 -280 5 -68 -8 -95 -52 -109 -11 -4 -47 -24
-78 -45 -179 -122 -298 -294 -298 -433 l0 -50 38 37 c43 42 52 45 52 18 0 -11
11 -56 25 -99 26 -84 78 -155 122 -167 19 -5 23 -1 28 32 27 169 62 262 114
306 37 31 56 35 48 10 -2 -10 -17 -58 -32 -108 -28 -97 -42 -221 -26 -244 7
-11 42 -15 138 -19 205 -7 312 19 347 86 18 35 52 168 62 239 4 30 11 50 16
47 6 -4 9 -67 7 -158 l-4 -151 120 -3 c133 -4 376 12 456 29 31 7 62 22 77 36
22 22 24 31 19 81 -12 138 -126 321 -317 511 -173 173 -228 252 -681 986 -306
498 -514 794 -636 907 -105 97 -203 125 -488 138 -201 9 -250 17 -315 50 -121
63 -220 289 -220 506 0 95 7 154 20 154 4 0 13 -26 20 -57 20 -93 84 -266 125
-339 49 -87 117 -156 179 -179 47 -18 54 -18 190 -2 323 39 445 10 614 -147
70 -66 129 -141 409 -522 235 -320 392 -442 580 -452 56 -3 83 -1 83 7 0 6
-11 40 -25 77 -14 36 -25 69 -25 73 0 3 111 6 248 7 232 0 422 15 422 33 0 4
-18 22 -41 40 -118 96 -132 202 -32 258 154 86 606 133 746 77 16 -6 15 0 -8
47 -116 230 -296 358 -565 404 -130 22 -439 31 -580 16 -62 -7 -114 -10 -116
-8 -10 10 89 189 131 235 47 53 108 92 142 92 44 1 -21 21 -134 41 -166 30
-423 32 -543 4 -68 -16 -120 -19 -260 -19 -442 1 -867 127 -1063 313 -33 31
-92 105 -132 166 -184 276 -494 578 -747 728 l-63 37 51 0 c28 0 65 -5 83 -11
18 -6 34 -9 37 -7 8 8 -151 162 -223 217 -73 55 -212 131 -278 151 -22 7 -44
16 -49 20 -11 11 90 23 148 18 25 -2 46 -2 46 0 0 10 -187 121 -295 175 -303
151 -593 242 -1070 337 -1585 315 -2802 775 -3320 1255 l-50 46 170 -5 c154
-4 241 -16 309 -42 34 -13 -41 80 -139 175 -146 139 -320 246 -528 327 l-97
37 27 19 c71 46 177 81 267 87 l90 6 -40 26 c-154 102 -465 198 -726 225 -38
4 -68 10 -68 13 0 16 138 73 187 78 53 6 53 6 36 26 -31 34 -101 78 -161 99
-84 30 -193 27 -382 -10 -298 -59 -496 -65 -665 -22 -88 22 -225 83 -225 100
0 6 36 10 99 10 253 0 581 43 686 89 57 25 69 43 62 97 -18 164 -424 796 -685
1065 -102 106 -102 109 -6 109 l54 0 -21 58 c-42 114 -122 269 -197 382 -111
167 -226 277 -442 425 -584 397 -810 600 -910 813 -74 156 -204 313 -301 363
-56 28 -126 34 -165 14z m-120 -686 c44 -52 61 -128 61 -279 0 -107 -4 -147
-19 -190 -19 -56 -51 -110 -65 -110 -4 0 -15 24 -24 53 -25 79 -77 158 -129
196 l-46 35 39 71 c21 39 47 106 58 149 11 42 25 84 31 91 21 26 66 18 94 -16z
m1131 -438 c41 -64 142 -258 190 -366 l23 -54 -76 65 c-42 35 -150 112 -239
171 l-162 108 35 12 c20 7 58 15 85 19 55 7 63 16 74 82 4 24 11 39 17 36 5
-4 29 -36 53 -73z m592 -1394 c46 -50 69 -110 82 -216 11 -83 19 -98 49 -82
21 11 67 61 93 101 l16 24 50 -37 c65 -48 232 -221 362 -376 101 -121 103
-125 80 -134 -39 -15 -379 0 -531 23 -169 25 -316 62 -371 92 -80 44 -114 154
-105 339 8 145 10 150 63 91 23 -26 71 -69 105 -96 l63 -49 -5 181 c-2 100 -1
182 3 182 3 0 24 -19 46 -43z"/>
<path d="M3805 10053 c-232 -30 -406 -117 -509 -254 -97 -128 -136 -247 -136
-408 0 -161 46 -284 141 -380 94 -94 211 -136 515 -186 274 -45 369 -80 424
-157 64 -89 79 -246 32 -351 -71 -160 -219 -241 -437 -241 -180 1 -328 53
-441 157 -65 59 -74 86 -74 230 l0 107 -68 0 -69 0 -6 -159 c-6 -137 -23 -271
-42 -331 -9 -28 166 -102 335 -141 127 -30 395 -37 528 -15 302 51 519 199
626 427 112 238 77 535 -80 678 -99 90 -178 118 -494 171 -346 58 -415 86
-477 189 -75 125 -47 299 63 401 63 58 137 89 243 102 168 22 371 -34 459
-125 33 -34 33 -35 40 -158 l7 -124 66 -3 65 -3 12 153 c7 84 19 184 27 221
11 48 12 74 5 87 -14 26 -204 87 -329 105 -87 14 -347 18 -426 8z"/>
<path d="M11780 9453 c-396 -973 -518 -1257 -565 -1319 -25 -33 -28 -34 -147
-50 l-48 -6 0 -67 0 -66 350 0 350 0 0 67 0 66 -37 6 c-21 3 -65 8 -98 11 -76
8 -105 26 -105 65 0 34 52 199 103 330 l33 85 388 0 388 0 53 -131 c65 -162
105 -278 105 -303 0 -10 -7 -24 -15 -31 -13 -11 -121 -27 -197 -29 -15 -1 -18
-11 -18 -69 l0 -67 475 0 475 0 0 67 c0 38 -3 68 -7 68 -46 1 -153 24 -171 36
-38 25 -129 226 -502 1117 l-343 817 -112 0 -111 0 -244 -597z m381 -315 l156
-373 -91 -6 c-118 -9 -349 -9 -453 -1 l-82 7 152 372 c84 205 154 373 157 373
3 0 75 -168 161 -372z"/>
<path d="M1880 9969 l0 -57 48 -6 c26 -3 75 -8 110 -12 109 -11 106 -2 115
-291 11 -322 2 -1405 -11 -1457 -6 -21 -15 -43 -20 -48 -9 -9 -90 -24 -184
-34 l-58 -5 0 -59 0 -58 495 1 495 1 0 57 0 57 -47 6 c-27 3 -74 8 -107 11
-77 9 -101 32 -113 111 -4 33 -8 403 -8 824 0 762 2 809 33 858 9 13 78 27
185 38 l57 5 0 57 0 57 -495 0 -495 1 0 -57z"/>
<path d="M4920 9968 l0 -57 43 -5 c23 -3 69 -8 102 -12 75 -8 90 -15 106 -56
17 -44 24 -969 11 -1378 -11 -340 -16 -362 -79 -379 -21 -6 -57 -11 -79 -11
-23 0 -56 -3 -73 -6 -30 -6 -31 -8 -31 -63 l0 -57 355 1 355 0 0 58 c0 31 -3
57 -8 57 -45 0 -182 24 -199 35 -44 29 -45 54 -50 800 -3 391 -3 708 0 705 14
-16 566 -1161 703 -1460 l103 -225 52 0 52 0 39 90 c95 215 416 887 647 1355
l122 245 -3 -725 c-3 -570 -6 -732 -16 -757 -16 -39 -45 -49 -159 -58 l-83 -7
0 -57 0 -57 480 0 480 1 0 57 c0 64 9 59 -115 73 -92 11 -105 15 -121 47 -12
24 -18 96 -26 361 -11 369 -4 1219 12 1312 11 72 31 91 97 99 27 3 72 8 101
12 l52 6 0 57 0 56 -357 0 -356 0 -30 -70 c-83 -197 -652 -1392 -673 -1414 -2
-2 -45 81 -95 185 -299 621 -474 989 -538 1134 l-73 165 -374 0 -374 0 0 -57z"/>
<path d="M7970 9968 l0 -57 43 -5 c23 -3 69 -8 102 -12 75 -8 90 -15 106 -56
17 -44 24 -969 11 -1378 -11 -340 -16 -362 -79 -379 -21 -6 -57 -11 -79 -11
-23 0 -56 -3 -73 -6 -30 -6 -31 -8 -31 -63 l0 -57 355 1 355 0 0 58 c0 31 -3
57 -8 57 -45 0 -182 24 -199 35 -44 29 -45 54 -50 800 -3 391 -3 708 0 705 14
-16 566 -1161 703 -1460 l103 -225 52 0 52 0 39 90 c95 215 416 887 647 1355
l122 245 -3 -725 c-3 -570 -6 -732 -16 -757 -16 -39 -45 -49 -159 -58 l-83 -7
0 -57 0 -57 480 0 480 1 0 57 c0 64 9 59 -115 73 -92 11 -105 15 -121 47 -12
24 -18 96 -26 361 -11 369 -4 1219 12 1312 11 72 31 91 97 99 27 3 72 8 101
12 l52 6 0 57 0 56 -357 0 -356 0 -30 -70 c-83 -197 -652 -1392 -673 -1414 -2
-2 -45 81 -95 185 -299 621 -474 989 -538 1134 l-73 165 -374 0 -374 0 0 -57z"/>
<path d="M13400 9968 c0 -57 0 -57 33 -62 133 -21 163 -27 174 -39 7 -7 18
-35 24 -62 15 -67 24 -1393 11 -1565 -12 -145 -17 -154 -109 -164 -32 -4 -75
-9 -95 -12 l-38 -6 0 -57 0 -56 480 0 480 0 0 56 0 57 -50 6 c-27 3 -73 9
-100 12 -80 9 -89 22 -100 144 -22 222 -27 596 -14 1100 7 278 13 510 13 517
1 17 192 26 281 13 182 -26 286 -126 313 -300 13 -89 -2 -199 -39 -273 -35
-70 -111 -139 -202 -185 -71 -34 -82 -37 -162 -36 -86 1 -87 1 -97 -26 -10
-26 7 -53 229 -391 131 -200 287 -439 346 -531 l107 -168 130 0 c72 0 201 3
288 7 l157 6 0 53 0 52 -42 7 c-60 10 -87 27 -129 77 -40 48 -599 878 -599
889 0 3 22 16 49 27 93 38 196 105 259 168 146 146 191 378 107 562 -30 65
-114 155 -171 183 -113 54 -95 53 -841 54 l-693 1 0 -58z"/>
<path d="M15558 10024 c-3 -5 -3 -120 0 -256 l5 -248 67 0 66 0 12 137 c6 75
16 141 21 146 16 16 114 26 331 32 135 4 210 3 220 -4 13 -9 15 -96 13 -698
-3 -764 -10 -977 -36 -1017 -20 -29 -60 -41 -169 -51 l-78 -7 0 -56 0 -57 495
0 495 0 0 57 c0 65 8 60 -125 73 -33 3 -72 8 -86 11 -55 11 -54 -10 -57 880
-2 532 1 831 7 848 10 26 12 26 108 26 182 -1 404 -18 428 -34 19 -13 24 -27
29 -88 4 -40 9 -101 13 -135 l5 -63 62 0 62 0 12 183 c7 100 17 209 21 242 7
44 6 63 -3 73 -10 11 -96 11 -467 1 -420 -11 -890 -8 -1285 8 -92 3 -163 2
-166 -3z"/>
<path d="M752 7163 l3 -268 8853 -3 8852 -2 0 270 0 270 -8855 0 -8855 0 2
-267z"/>
<path d="M20190 6795 c1 -148 27 -755 33 -761 3 -3 8 17 13 43 l8 48 7 -55 c4
-30 13 -162 20 -294 10 -190 10 -269 1 -386 -35 -420 -179 -1063 -264 -1181
-36 -50 -71 -65 -184 -79 -190 -23 -234 -52 -305 -204 -37 -79 -89 -248 -104
-334 -7 -41 -6 -43 29 -57 53 -22 93 -19 121 10 14 13 25 30 26 37 0 7 5 -3
12 -22 15 -43 47 -60 113 -60 l50 0 17 58 c25 82 56 131 105 169 54 41 69 42
41 4 -24 -33 -59 -150 -59 -198 0 -30 3 -32 43 -37 81 -11 283 -26 355 -26
126 0 168 33 221 170 64 166 83 321 84 713 1 147 3 267 5 267 2 0 36 -30 75
-66 l71 -66 24 64 c127 339 168 915 90 1277 -47 220 -142 436 -286 652 -87
129 -235 312 -321 394 l-41 39 0 -119z"/>
<path d="M11974 6513 c-48 -52 -42 -106 18 -143 46 -28 61 -25 97 15 42 49 41
84 -4 124 -44 38 -78 40 -111 4z"/>
<path d="M25105 6530 c-161 -21 -289 -75 -360 -151 -75 -80 -84 -135 -36 -212
17 -25 135 -153 263 -284 311 -318 412 -464 454 -651 31 -138 3 -332 -73 -509
-91 -211 -272 -425 -411 -487 -42 -19 -47 -19 -190 -3 -213 24 -244 15 -363
-110 -88 -92 -148 -177 -192 -271 -40 -85 -43 -173 -9 -240 l22 -42 32 35 c17
20 39 40 50 46 18 10 19 7 17 -33 -4 -49 1 -50 81 -21 65 23 117 58 186 125
l62 59 -24 -66 c-13 -36 -24 -84 -24 -105 l0 -40 108 0 c155 0 378 18 447 35
76 20 140 62 210 137 66 71 105 144 134 253 44 161 165 351 311 488 59 55 106
88 182 128 125 64 191 127 242 231 51 105 69 185 69 306 l-1 102 28 0 c16 0
38 -11 53 -26 l25 -25 4 78 c8 199 -18 354 -84 492 -38 79 -39 85 -22 95 37
22 80 34 119 36 l40 1 -121 118 c-247 241 -523 415 -756 480 -132 36 -331 49
-473 31z"/>
<path d="M834 6448 c-17 -18 -36 -41 -43 -51 -23 -29 -30 -163 -32 -601 l-1
-421 23 0 c21 0 27 9 46 68 36 111 45 211 51 607 7 373 6 430 -7 430 -4 0 -21
-15 -37 -32z"/>
<path d="M17857 6332 c-32 -34 -47 -79 -36 -109 9 -25 64 -68 98 -76 46 -11
122 101 96 143 -14 22 -88 70 -110 70 -12 0 -33 -13 -48 -28z"/>
<path d="M12096 6319 c-47 -55 -28 -120 44 -147 46 -17 93 20 106 86 5 24 0
34 -30 60 -48 42 -86 42 -120 1z"/>
<path d="M2338 6313 c-57 -60 -56 -111 5 -157 60 -46 103 -33 141 41 24 49 20
68 -26 107 -51 44 -85 46 -120 9z"/>
<path d="M11934 6330 c-24 -9 -50 -46 -60 -84 -5 -21 1 -33 29 -61 46 -46 85
-47 121 -4 38 45 35 91 -6 122 -42 31 -58 36 -84 27z"/>
<path d="M3542 6266 c-30 -32 -42 -56 -47 -89 l-7 -45 -76 -22 c-154 -45 -234
-81 -286 -129 -64 -59 -106 -126 -106 -167 0 -66 87 -127 226 -160 81 -18 110
-13 161 31 l40 34 6 -67 c16 -170 112 -236 342 -236 88 -1 124 4 181 22 84 27
97 39 127 118 33 90 30 222 -9 333 -33 96 -52 115 -84 86 -12 -11 -31 -37 -41
-57 l-19 -37 30 -76 c17 -41 33 -104 37 -139 l6 -64 -39 -11 c-65 -19 -185
-24 -262 -12 -142 22 -158 51 -148 271 3 85 13 218 21 295 8 77 15 146 15 153
0 24 -28 11 -68 -32z"/>
<path d="M7859 6296 c-31 -15 -69 -73 -69 -104 0 -15 15 -39 39 -64 33 -32 46
-39 72 -36 36 3 83 54 95 101 5 24 0 33 -34 66 -46 44 -71 53 -103 37z"/>
<path d="M1552 6256 c-23 -25 -44 -56 -47 -69 -4 -13 0 -100 8 -193 21 -245 6
-290 -104 -313 -64 -14 -178 -14 -232 0 -67 17 -81 32 -87 97 -5 52 -7 57 -31
60 -24 3 -27 -2 -42 -55 -42 -150 -30 -209 50 -246 41 -19 66 -22 173 -22 178
0 244 26 289 113 l18 35 7 -38 c30 -159 115 -209 351 -209 190 0 287 29 550
165 200 104 222 112 330 113 l90 1 22 45 c12 25 24 56 25 70 3 23 0 25 -42 27
-106 6 -207 29 -394 89 -297 96 -366 96 -451 2 -43 -48 -65 -104 -50 -128 5
-7 21 -2 51 15 54 32 123 41 195 26 73 -15 309 -85 309 -91 0 -8 -243 -110
-313 -132 -141 -44 -382 -61 -460 -34 -50 18 -76 42 -98 91 -17 39 -25 120
-52 553 -5 76 -16 81 -65 28z"/>
<path d="M13621 6274 c-42 -35 -61 -74 -61 -122 l0 -40 -102 -37 c-193 -70
-267 -124 -325 -239 -54 -107 12 -175 211 -216 77 -16 115 -7 164 38 l40 37 7
-50 c8 -70 46 -147 87 -178 90 -69 327 -77 470 -15 39 16 50 27 66 66 32 74
43 155 32 230 -15 110 -67 242 -95 242 -20 0 -45 -29 -66 -74 -16 -37 -16 -43
-2 -76 35 -76 62 -167 63 -202 0 -37 -1 -38 -56 -54 -42 -12 -86 -15 -174 -13
-132 4 -156 14 -195 80 -19 32 -20 54 -22 338 -2 167 -5 306 -7 308 -2 2 -18
-8 -35 -23z"/>
<path d="M12840 6258 c-26 -43 -36 -97 -22 -117 64 -90 109 -195 118 -276 l6
-51 -46 -18 c-50 -19 -201 -46 -256 -46 -50 1 -113 32 -141 71 -24 33 -27 63
-19 149 4 39 2 45 -15 47 -42 6 -66 -28 -81 -116 -17 -101 -46 -161 -76 -161
-32 0 -83 36 -103 74 -17 30 -17 39 -5 95 15 70 8 84 -35 79 -23 -2 -31 -13
-51 -61 -37 -91 -62 -126 -118 -157 -70 -41 -146 -42 -181 -4 -31 33 -48 90
-35 115 14 26 12 37 -8 48 -13 7 -42 1 -110 -25 -51 -19 -150 -49 -220 -67
-143 -37 -152 -44 -152 -129 0 -41 4 -50 28 -65 15 -9 28 -18 30 -19 2 -1 -9
-28 -25 -61 -40 -82 -150 -190 -238 -234 -97 -47 -179 -52 -263 -14 -64 28
-82 27 -82 -6 0 -51 40 -80 164 -118 136 -42 243 -20 340 69 88 81 164 231
181 357 7 52 8 53 48 63 23 6 79 23 125 39 l82 28 10 -38 c21 -75 89 -129 164
-129 64 0 160 37 210 82 l48 41 36 -41 c71 -80 152 -104 205 -62 14 11 36 43
50 71 l24 50 26 -39 c52 -79 178 -109 327 -78 88 19 214 76 229 104 6 11 16
55 22 97 14 94 2 183 -41 293 -30 77 -96 182 -118 190 -6 2 -21 -11 -32 -30z"/>
<path d="M17088 6278 c-32 -25 -68 -91 -68 -123 0 -18 13 -104 29 -192 33
-176 31 -242 -10 -276 -38 -31 -128 -51 -224 -51 -132 0 -165 24 -177 124 -2
19 -9 25 -28 25 -22 0 -26 -6 -38 -60 -19 -91 -10 -171 24 -206 47 -49 190
-64 322 -34 98 23 141 50 173 112 l28 52 6 -32 c10 -46 33 -87 68 -125 46 -48
116 -66 262 -66 158 -1 248 23 420 111 72 36 179 91 239 122 107 55 110 56
206 59 l98 4 22 50 c12 27 20 59 18 71 -3 20 -10 22 -108 29 -103 6 -153 18
-430 104 -48 15 -120 29 -167 31 -70 5 -88 2 -127 -16 -54 -27 -106 -98 -106
-147 0 -45 10 -48 55 -16 34 25 46 27 129 27 76 0 115 -7 234 -40 78 -22 142
-42 142 -45 -1 -10 -265 -124 -328 -141 -95 -27 -362 -52 -411 -39 -57 15 -97
53 -119 113 -11 29 -39 169 -62 312 -24 143 -46 263 -50 268 -3 4 -13 1 -22
-5z"/>
<path d="M7048 6268 c-8 -7 -27 -29 -42 -49 -32 -44 -33 -71 -5 -261 21 -141
20 -208 -2 -249 -18 -34 -94 -61 -184 -67 -168 -10 -224 16 -233 107 -4 49 -6
52 -30 49 -22 -3 -28 -11 -39 -53 -22 -81 -20 -171 4 -203 60 -82 362 -83 467
-1 15 11 36 40 48 62 l21 42 13 -54 c26 -99 75 -144 181 -166 87 -19 183 -19
305 0 119 18 178 37 364 121 186 83 243 98 344 89 77 -7 77 -7 97 22 23 34 43
79 43 98 0 9 -18 16 -57 20 -107 11 -197 38 -383 111 -290 114 -359 118 -452
25 -46 -46 -65 -87 -54 -116 4 -12 14 -10 58 10 88 41 142 34 366 -47 l144
-52 -152 -53 c-187 -65 -284 -83 -453 -83 -113 0 -137 3 -175 21 -73 36 -86
77 -127 399 -19 150 -38 277 -43 282 -4 4 -15 2 -24 -4z"/>
<path d="M4802 6205 c-35 -29 -52 -71 -42 -101 10 -27 67 -74 89 -74 23 0 78
58 86 92 5 21 0 33 -27 61 -46 49 -69 53 -106 22z"/>
<path d="M4989 6191 c-50 -50 -51 -81 -5 -127 45 -45 75 -44 115 1 41 47 41
82 -1 122 -52 48 -65 48 -109 4z"/>
<path d="M14913 6219 c-27 -10 -63 -65 -63 -95 0 -51 78 -106 120 -84 26 14
60 68 60 96 0 20 -52 77 -80 86 -8 3 -25 2 -37 -3z"/>
<path d="M15080 6200 c-55 -59 -45 -110 29 -154 29 -17 33 -17 56 -2 66 43 75
104 21 153 -44 41 -70 42 -106 3z"/>
<path d="M9498 6183 c-38 -39 -49 -74 -35 -104 12 -23 71 -69 89 -69 17 0 77
66 84 92 5 21 -1 34 -28 62 -46 49 -76 54 -110 19z"/>
<path d="M9681 6175 c-41 -47 -40 -78 3 -121 45 -45 75 -44 115 1 42 49 41 84
-4 124 -47 41 -75 40 -114 -4z"/>
<path d="M4298 6053 c-55 -63 -92 -192 -85 -294 13 -200 158 -300 475 -329
224 -21 517 31 699 124 l48 24 25 -52 c20 -41 35 -57 80 -81 49 -26 64 -30
135 -29 102 0 167 27 227 93 24 26 48 55 53 64 9 15 16 13 68 -19 70 -44 179
-83 228 -84 58 0 106 64 128 170 10 47 9 66 -9 134 -42 166 -126 244 -231 216
-69 -19 -129 -88 -198 -234 -56 -115 -64 -127 -103 -147 -34 -18 -61 -23 -123
-23 -115 0 -133 6 -157 61 -15 34 -18 56 -13 89 6 40 4 44 -14 44 -11 0 -40
-14 -65 -30 -143 -97 -392 -160 -631 -160 -267 0 -447 64 -497 178 -26 58 -20
134 16 216 15 33 24 66 22 73 -8 19 -60 16 -78 -4z"/>
<path d="M14365 5988 c-128 -270 -17 -479 290 -544 110 -23 348 -23 475 0 111
20 273 72 359 115 l60 31 11 -35 c14 -43 77 -100 127 -115 154 -46 283 -7 349
105 l25 43 56 -34 c71 -43 154 -74 216 -81 41 -5 51 -2 74 18 66 61 88 186 54
295 -41 125 -86 184 -160 204 -92 24 -176 -43 -247 -198 -70 -152 -78 -165
-125 -189 -84 -45 -222 -21 -262 46 -11 18 -17 50 -17 85 0 50 -2 56 -21 56
-11 0 -35 -11 -52 -24 -140 -105 -405 -176 -658 -176 -281 0 -454 72 -490 205
-14 51 -6 109 26 185 14 34 23 65 20 70 -4 6 -22 10 -41 10 -34 0 -36 -3 -69
-72z"/>
<path d="M8997 6011 c-13 -16 -37 -67 -52 -115 -23 -70 -27 -97 -23 -153 16
-223 170 -320 520 -330 243 -8 432 29 637 123 73 34 91 35 91 8 0 -27 70 -92
118 -109 71 -25 243 -31 320 -11 105 27 174 66 197 111 29 60 28 197 -4 288
-26 76 -98 192 -120 192 -22 0 -52 -48 -58 -91 -4 -35 1 -49 35 -102 50 -78
88 -182 69 -194 -48 -31 -130 -51 -234 -55 -99 -5 -116 -3 -155 15 -57 28 -78
65 -78 136 0 49 -2 56 -20 56 -11 0 -42 -16 -69 -35 -158 -114 -441 -183 -706
-172 -198 8 -310 43 -382 119 -61 63 -68 134 -27 248 14 39 23 78 20 86 -9 24
-52 16 -79 -15z"/>
<path d="M8719 5890 c-66 -35 -147 -118 -180 -185 -56 -114 -50 -252 13 -315
54 -54 148 -52 205 5 29 29 33 40 33 83 0 69 -27 100 -100 116 -51 12 -55 15
-58 43 -6 58 56 146 158 225 29 23 33 29 20 37 -22 16 -50 13 -91 -9z"/>
<path d="M12748 5450 c-26 -16 -58 -74 -58 -107 0 -55 94 -118 139 -93 28 14
63 85 59 117 -6 49 -102 106 -140 83z"/>
<path d="M3793 5208 c-47 -48 -55 -79 -34 -114 25 -39 51 -61 84 -69 24 -6 33
-2 67 34 51 53 53 88 8 136 -18 19 -46 38 -63 41 -25 4 -36 0 -62 -28z"/>
<path d="M13898 5203 c-58 -60 -54 -116 11 -162 44 -32 73 -27 115 19 48 53
47 81 -3 131 -48 48 -85 52 -123 12z"/>
<path d="M10532 5088 c-34 -56 -35 -73 -8 -106 35 -40 77 -57 106 -42 31 17
64 94 50 119 -16 31 -65 61 -98 61 -24 0 -35 -7 -50 -32z"/>
<path d="M10357 5080 c-15 -12 -32 -39 -38 -61 -12 -38 -11 -41 21 -74 47 -48
77 -53 112 -17 19 19 31 43 35 69 5 37 2 42 -28 65 -50 38 -72 42 -102 18z"/>
</g>
</svg>
