<?xml version="1.0" standalone="no"?>
<!DOCTYPE svg PUBLIC "-//W3C//DTD SVG 20010904//EN"
 "http://www.w3.org/TR/2001/REC-SVG-20010904/DTD/svg10.dtd">
<svg version="1.0" xmlns="http://www.w3.org/2000/svg"
 width="512.000000pt" height="512.000000pt" viewBox="0 0 512.000000 512.000000"
 preserveAspectRatio="xMidYMid meet">

<g transform="translate(0.000000,512.000000) scale(0.100000,-0.100000)"
fill="#000000" stroke="none">
<path d="M2460 4973 c-437 -24 -820 -142 -1173 -361 -523 -323 -919 -862
-1067 -1452 -143 -569 -84 -1149 170 -1665 353 -717 1023 -1207 1815 -1330
145 -23 406 -30 564 -16 1420 126 2423 1445 2165 2847 -103 566 -407 1076
-857 1443 -271 220 -639 399 -979 475 -190 43 -471 69 -638 59z m240 -112 c0
-5 -9 -11 -20 -14 -19 -5 -20 -14 -20 -127 0 -113 1 -122 20 -127 43 -11 16
-23 -52 -23 -61 1 -70 3 -56 13 18 14 21 38 18 147 l-1 75 -46 -118 c-26 -65
-50 -114 -54 -110 -4 4 -32 55 -63 113 l-56 105 0 -92 c0 -102 5 -122 29 -125
9 0 -6 -4 -34 -7 -60 -7 -66 -5 -37 15 20 14 22 24 22 115 0 102 -9 139 -35
139 -8 0 -15 5 -15 11 0 6 21 9 52 7 l53 -3 50 -92 c27 -51 52 -93 55 -93 3 0
21 42 41 93 l36 92 49 6 c27 3 52 7 57 7 4 1 7 -2 7 -7z m-682 -62 c-25 -14
-22 -51 11 -153 29 -88 44 -110 69 -101 6 2 12 1 12 -3 0 -5 -26 -16 -57 -26
-32 -10 -65 -21 -73 -24 -11 -4 -11 -1 3 15 17 20 17 24 -15 119 l-32 99 -7
-60 c-4 -33 -7 -87 -8 -121 -1 -33 -4 -64 -8 -68 -4 -3 -47 33 -95 81 -48 48
-88 85 -88 81 0 -4 11 -43 25 -86 25 -80 45 -109 65 -97 5 3 10 3 10 -2 0 -4
-23 -15 -50 -24 -28 -8 -50 -12 -50 -8 0 4 7 9 15 13 21 8 18 38 -18 146 -30
88 -34 95 -62 101 -32 6 -29 9 39 29 l38 12 78 -77 78 -78 7 59 c17 162 13
151 53 167 20 8 46 15 57 16 18 0 19 0 3 -10z m1102 -8 c0 -6 9 -72 20 -147
13 -90 26 -144 37 -156 20 -22 15 -22 -66 1 -49 13 -59 19 -43 23 18 5 22 13
22 47 0 34 -4 43 -23 50 -53 20 -70 17 -90 -17 -19 -32 -19 -33 -1 -53 18 -20
18 -20 -11 -13 -17 4 -41 10 -55 14 l-25 7 26 11 c15 6 58 56 108 126 74 105
101 134 101 107z m574 -243 c23 -32 20 -55 -10 -85 -20 -20 -32 -24 -55 -19
-28 5 -29 4 -18 -16 7 -13 9 -42 5 -76 -4 -35 -2 -59 5 -68 16 -19 5 -18 -42
7 -29 14 -40 25 -36 37 30 102 31 111 18 126 -22 26 -37 19 -62 -29 -20 -38
-22 -48 -11 -65 20 -32 15 -32 -45 2 -67 36 -89 53 -56 44 25 -8 43 14 97 121
36 72 45 113 26 113 -5 0 -10 5 -10 10 0 16 177 -77 194 -102z m-2277 -65 c-4
-3 -13 -1 -19 5 -34 34 -125 -1 -116 -45 3 -16 13 -18 83 -15 106 4 123 -1
141 -44 12 -28 13 -43 4 -69 -12 -37 -63 -75 -99 -75 -12 0 -21 -6 -21 -15 0
-25 -16 -17 -45 21 -32 42 -28 51 14 30 16 -9 40 -16 53 -16 34 0 68 27 68 54
0 40 -22 49 -99 41 -84 -8 -107 -2 -126 34 -25 50 7 110 71 131 19 7 34 17 34
23 0 6 14 -3 32 -20 18 -18 29 -36 25 -40z m1418 -2 c370 -56 687 -197 975
-437 616 -511 849 -1374 580 -2138 -138 -391 -406 -734 -760 -971 -118 -79
-322 -177 -466 -224 -488 -160 -1014 -122 -1469 106 -540 270 -915 759 -1041
1355 -31 151 -44 445 -25 604 54 456 255 864 582 1179 306 295 691 479 1115
534 129 16 370 12 509 -8z m1231 -186 c46 -41 97 -84 113 -96 l29 -22 -21 -33
c-28 -43 -40 -43 -32 0 6 28 2 39 -23 66 l-29 33 -76 -92 c-75 -89 -88 -113
-67 -126 6 -3 10 -11 10 -16 0 -12 -22 3 -85 59 -46 40 -47 42 -18 36 27 -5
35 1 93 68 106 121 98 107 71 130 -16 12 -38 19 -60 18 -56 -3 -58 -1 -26 25
17 13 32 24 34 25 2 0 41 -34 87 -75z m-3061 -34 c-4 -14 10 -38 53 -88 80
-92 98 -107 122 -100 32 8 23 -7 -31 -53 -39 -33 -50 -38 -45 -22 6 16 -9 39
-69 106 -74 83 -83 90 -115 87 -8 -1 7 19 33 44 54 50 61 54 52 26z m-609
-1596 l18 -55 58 0 c32 0 58 -4 58 -8 0 -4 -18 -25 -39 -46 l-39 -38 19 -56
c11 -31 18 -59 17 -64 -2 -4 -26 10 -55 32 l-51 39 -50 -39 c-27 -22 -52 -40
-55 -40 -3 0 1 21 9 47 21 70 18 81 -33 128 l-48 44 67 1 67 0 16 55 c8 30 17
55 20 55 2 0 12 -25 21 -55z m4368 -20 l17 -55 60 0 c32 0 59 -2 59 -5 0 -2
-19 -22 -41 -43 l-42 -39 21 -63 c12 -35 21 -65 19 -66 -1 -2 -26 15 -55 37
l-53 40 -51 -41 c-28 -22 -52 -39 -54 -37 -2 1 4 30 12 63 l16 61 -49 46 -48
47 66 0 66 0 13 55 c7 30 16 55 20 55 3 0 14 -25 24 -55z m-3971 -1209 c40
-63 47 -80 36 -87 -21 -13 -28 -11 -23 9 3 9 -1 25 -9 36 -13 17 -17 16 -84
-27 -39 -25 -73 -54 -75 -63 -2 -13 -10 -6 -31 25 -25 38 -26 42 -9 36 14 -4
42 8 92 40 69 44 71 47 57 68 -8 12 -23 21 -33 19 -15 -3 -16 -2 -4 12 7 9 18
15 23 13 6 -2 33 -38 60 -81z m3704 26 c10 -6 8 -17 -8 -46 -13 -25 -17 -42
-11 -48 16 -16 51 1 58 28 7 26 24 33 24 9 0 -27 -22 -63 -47 -76 -21 -12 -30
-11 -61 6 -31 17 -37 26 -40 58 -5 59 42 97 85 69z m-136 -152 c45 -34 88 -59
96 -56 18 7 16 0 -9 -34 -23 -31 -41 -40 -32 -16 6 17 -134 119 -153 112 -7
-3 -13 -3 -13 -1 0 7 23 55 27 55 1 0 40 -27 84 -60z m-3475 1 l24 -19 -41
-31 -42 -30 26 -10 c27 -11 41 -39 31 -64 -3 -8 -23 -27 -44 -42 -27 -19 -37
-32 -33 -43 5 -14 3 -14 -15 2 -30 26 -28 37 18 69 44 31 50 51 22 66 -25 13
-94 -41 -85 -67 6 -18 4 -16 -37 32 -17 20 -20 27 -9 23 20 -7 155 98 153 119
-2 19 3 18 32 -5z m3447 -123 c21 -25 23 -100 2 -118 -13 -11 -12 -15 10 -32
14 -11 29 -16 35 -13 22 13 8 -13 -21 -41 -16 -16 -27 -22 -24 -13 8 21 -118
134 -140 125 -18 -7 -18 -4 -3 29 6 14 17 25 25 25 7 0 13 9 13 19 0 26 39 53
65 45 11 -3 28 -15 38 -26z m-3336 -120 c26 -25 29 -46 9 -74 -14 -18 -16 -18
-49 15 -35 33 -35 33 -46 12 -13 -24 -2 -54 27 -70 15 -9 15 -10 1 -11 -31 0
-69 39 -69 73 0 67 78 101 127 55z m3184 -47 c34 -35 37 -68 8 -105 -30 -38
-79 -36 -113 5 -14 17 -26 35 -26 40 0 18 22 54 44 71 30 25 53 22 87 -11z
m-2934 -92 c15 -5 45 -27 65 -46 35 -35 37 -38 21 -55 -23 -26 -30 -22 -25 12
3 24 -1 32 -29 49 -46 28 -65 26 -99 -8 -58 -58 -49 -116 25 -158 40 -22 40
-23 11 -23 -42 0 -116 76 -116 119 0 46 26 90 63 106 39 17 48 18 84 4z m2764
-19 c27 -15 24 -34 -13 -65 -25 -21 -29 -28 -17 -36 23 -15 47 -10 69 13 22
24 29 5 7 -23 -37 -48 -96 -47 -126 2 -22 37 -13 79 22 104 25 18 32 18 58 5z
m-167 -62 c9 -12 16 -31 16 -41 0 -21 -48 -72 -58 -62 -4 4 -1 10 6 12 15 6
16 45 0 61 -17 17 -47 15 -54 -2 -3 -9 15 -46 42 -84 38 -56 51 -68 68 -64 13
3 4 -8 -21 -27 -48 -35 -55 -37 -46 -16 7 20 -82 155 -102 155 -27 0 -15 14
43 52 66 44 85 46 106 16z m-2429 -28 l26 -10 -26 -37 c-30 -45 -31 -53 -6
-46 26 7 63 -31 54 -54 -4 -10 -17 -33 -29 -52 -12 -18 -20 -40 -17 -48 5 -13
3 -13 -18 -3 -13 7 -26 14 -27 16 -2 1 8 23 23 48 29 49 28 76 -3 76 -21 0
-67 -74 -56 -91 7 -12 6 -12 -38 10 -30 15 -37 31 -14 31 18 0 110 145 101
160 -8 13 -3 13 30 0z m2166 -175 c22 7 27 -13 4 -21 -24 -10 20 -88 46 -81
23 6 25 -6 3 -28 -25 -25 -47 -14 -75 38 -14 26 -29 44 -33 40 -4 -5 -7 -1 -5
7 2 8 -1 25 -5 38 -5 15 -3 29 5 38 11 14 14 12 26 -11 11 -19 19 -24 34 -20z
m-1971 -20 c37 -19 46 -53 26 -94 -23 -43 -49 -55 -92 -41 -59 20 -70 84 -24
130 24 24 51 25 90 5z m180 -15 c0 -13 -7 -20 -20 -20 -13 0 -20 7 -20 20 0
13 7 20 20 20 13 0 20 -7 20 -20z m1698 -33 c2 -10 -3 -17 -12 -17 -24 0 -27
-16 -10 -59 10 -27 20 -38 30 -34 8 3 14 1 14 -3 0 -5 -18 -17 -41 -26 -38
-16 -40 -16 -34 1 8 27 -24 101 -44 101 -12 1 -11 5 8 20 17 15 27 17 36 10 9
-8 14 -5 18 11 6 24 30 21 35 -4z m-1718 -21 c0 0 -11 -28 -24 -61 -18 -43
-22 -63 -14 -72 14 -17 8 -16 -38 4 -26 11 -33 18 -22 20 18 5 50 86 42 107
-3 9 4 11 26 8 16 -2 30 -5 30 -6z m1557 -38 c6 -7 16 -30 22 -50 7 -21 20
-42 29 -47 22 -12 13 -20 -27 -24 -17 -2 -37 -9 -43 -15 -18 -18 -46 -14 -58
7 -14 27 -14 29 21 61 31 28 32 50 3 50 -8 0 -17 -7 -20 -15 -8 -19 -24 -20
-24 -1 0 34 76 60 97 34z m-1406 -18 c16 -9 17 -14 8 -33 l-12 -21 -8 22 c-10
27 -45 29 -59 3 -23 -44 -6 -91 34 -91 15 0 17 -3 9 -11 -13 -13 -67 -3 -83
16 -25 30 -10 101 23 115 30 12 65 12 88 0z m642 -39 c-3 -13 -11 -17 -29 -13
-21 4 -24 1 -24 -27 0 -24 4 -31 20 -31 11 0 20 -4 20 -10 0 -5 -9 -10 -20
-10 -17 0 -20 -7 -20 -49 0 -30 5 -51 13 -54 27 -10 -3 -17 -43 -11 -32 5 -38
9 -26 16 20 11 23 93 4 102 -10 5 -10 7 0 12 6 3 12 16 12 29 0 17 12 32 36
49 39 27 65 25 57 -3z m272 21 c12 -8 13 -37 2 -48 -4 -4 -7 0 -7 9 0 33 -72
33 -84 0 -9 -23 12 -43 48 -43 45 0 76 -25 76 -61 0 -50 -51 -85 -116 -77 -24
2 -30 8 -32 33 l-3 30 16 -22 c28 -39 95 -26 95 18 0 23 -16 32 -65 39 -31 4
-43 11 -53 33 -12 24 -11 31 3 53 24 37 92 57 120 36z m329 -39 c2 -10 8 -33
11 -51 4 -18 14 -36 23 -39 13 -6 13 -8 -4 -14 -42 -17 -50 -11 -60 43 -7 40
-14 54 -28 56 -10 2 -22 -2 -26 -8 -10 -16 8 -82 26 -96 12 -9 7 -13 -26 -22
-37 -9 -40 -9 -35 8 10 32 -13 100 -35 100 -10 0 -20 -6 -23 -12 -6 -20 13
-82 29 -94 12 -9 7 -13 -26 -22 -37 -9 -40 -8 -35 8 7 23 -10 101 -25 110 -6
4 0 11 16 19 15 6 29 10 31 7 2 -2 16 2 30 9 18 10 32 11 44 4 12 -6 20 -5 24
2 20 32 79 27 89 -8z m-1090 16 c25 -12 39 -41 29 -65 -6 -16 -17 -17 -61 -5
-28 8 -32 7 -32 -9 0 -26 29 -53 51 -47 23 6 25 -9 2 -17 -28 -11 -83 14 -94
41 -18 49 18 110 68 112 7 1 23 -4 37 -10z m313 -66 c19 -25 16 -77 -6 -104
-23 -29 -81 -31 -111 -4 -31 28 -27 88 7 115 33 25 90 22 110 -7z"/>
<path d="M3037 4685 l-27 -40 31 -8 c17 -5 34 -6 37 -3 3 3 1 25 -4 48 l-9 43
-28 -40z"/>
<path d="M3562 4544 c-12 -25 -20 -50 -17 -55 10 -15 62 -10 79 7 19 18 21 65
4 82 -23 23 -44 12 -66 -34z"/>
<path d="M1310 3857 c18 -9 26 -22 28 -46 3 -30 2 -32 -20 -25 -66 22 -98 -3
-98 -78 0 -26 -5 -38 -14 -38 -29 0 -36 -112 -10 -163 10 -18 35 -58 58 -90
35 -50 40 -63 39 -110 -2 -67 -14 -97 -58 -146 -34 -37 -35 -40 -15 -46 24 -8
25 -18 5 -35 -22 -19 -43 -103 -50 -207 -6 -85 -5 -91 12 -87 16 4 18 -3 19
-68 1 -40 6 -84 12 -98 9 -24 10 -23 19 20 l10 45 16 -36 c9 -20 23 -80 32
-133 8 -54 22 -110 30 -124 l14 -27 7 33 c3 17 10 32 15 32 12 0 38 -95 41
-147 2 -49 13 -55 30 -18 11 25 12 24 49 -38 20 -34 46 -70 57 -80 18 -17 18
-13 -5 65 -13 45 -22 87 -19 92 7 18 87 -164 107 -244 24 -91 38 -230 39 -366
0 -113 -7 -130 -69 -162 -19 -9 -43 -29 -54 -43 -17 -23 -18 -31 -7 -63 11
-33 30 -50 30 -26 0 6 10 4 23 -4 37 -24 86 -30 92 -12 15 49 18 51 24 16 5
-29 11 -36 34 -38 21 -3 36 5 62 31 30 30 35 42 35 81 0 28 -9 62 -22 88 -22
41 -23 53 -20 238 2 107 7 258 12 335 8 125 12 142 31 157 11 10 25 15 30 12
17 -10 8 21 -24 89 -18 37 -30 67 -27 67 3 0 15 6 26 14 19 14 18 15 -6 41
l-25 27 40 -20 c51 -27 78 -50 100 -85 23 -36 14 -43 -25 -23 -32 15 -32 15
-26 -7 22 -84 37 -170 32 -183 -4 -10 -13 -13 -25 -9 -54 17 -79 -79 -42 -161
27 -59 91 -99 91 -58 0 11 5 14 18 9 74 -28 225 -45 267 -28 16 5 15 8 -5 23
-22 16 -21 17 57 49 84 35 208 104 219 122 3 6 -4 21 -17 35 -28 30 -18 30 65
-1 115 -43 223 -103 303 -167 191 -153 218 -166 381 -178 159 -12 217 -34 291
-110 31 -32 68 -78 81 -103 l24 -45 -46 -44 c-42 -38 -79 -102 -49 -84 6 4 15
-3 20 -17 15 -39 31 -42 37 -8 4 17 12 35 20 41 10 9 11 5 3 -24 -12 -44 -6
-56 29 -56 51 0 72 11 81 44 l9 31 1 -27 c1 -27 2 -28 64 -28 34 0 68 4 75 9
22 14 4 56 -54 122 -30 35 -96 130 -147 212 -140 226 -163 247 -266 247 -32 0
-56 6 -69 18 -22 19 -42 72 -41 111 0 21 5 15 25 -29 14 -30 30 -58 37 -62 7
-4 40 -8 75 -8 35 0 75 -6 91 -15 16 -8 58 -55 95 -105 64 -88 112 -130 149
-130 14 0 17 5 12 20 -6 19 -2 20 64 20 65 0 87 9 61 25 -5 3 -10 15 -10 25 0
24 52 40 128 40 l53 0 -22 31 c-33 47 -90 69 -181 69 -43 0 -78 4 -78 9 0 5
12 23 26 40 l26 31 -34 1 c-18 0 -91 2 -163 3 -153 2 -202 19 -256 86 -67 84
-112 130 -146 151 -22 14 -31 24 -23 29 13 8 -39 56 -79 72 -23 9 -24 11 -7
17 28 11 -103 67 -221 95 -54 13 -150 36 -213 51 -237 55 -466 148 -546 221
l-39 35 55 -7 55 -6 -30 31 c-16 17 -55 44 -85 60 l-54 30 27 10 c16 6 34 11
40 11 26 1 -48 32 -106 45 -49 11 -57 15 -39 20 61 19 -16 49 -90 35 -69 -13
-141 -13 -175 2 -26 11 -23 12 43 19 95 9 114 16 114 41 0 26 -81 158 -129
211 -26 28 -31 41 -22 46 10 6 7 19 -12 57 -29 56 -75 102 -168 167 -66 46
-159 138 -159 156 0 23 -53 71 -78 71 l-27 0 25 -13z m-30 -192 c0 -70 -8 -80
-34 -42 -16 22 -20 38 -15 52 4 11 10 28 13 39 11 33 36 -1 36 -49z m255 -75
l26 -51 -50 33 c-43 28 -47 34 -30 40 10 4 19 12 19 18 0 20 10 9 35 -40z
m130 -311 c6 -28 8 -29 24 -15 16 14 20 12 57 -27 80 -84 81 -81 -19 -75 -110
7 -137 22 -137 78 l0 40 25 -16 25 -16 0 36 c0 43 15 40 25 -5z"/>
<path d="M1444 2173 c3 -17 8 -100 12 -185 5 -132 3 -166 -14 -251 -24 -114
-41 -147 -78 -147 -33 0 -70 -38 -83 -86 -6 -21 -9 -39 -8 -40 1 -1 19 -4 40
-8 34 -6 38 -4 47 19 12 32 24 33 16 1 -5 -22 -2 -24 44 -29 28 -3 57 -4 64
-1 24 9 38 57 43 152 5 75 8 90 19 81 18 -15 31 20 45 115 19 140 -20 271
-109 365 l-43 46 5 -32z"/>
<path d="M2495 2113 c-22 -5 -65 -42 -65 -55 0 -4 31 -41 68 -82 76 -81 102
-127 102 -178 -1 -44 -34 -115 -73 -155 -27 -29 -38 -33 -81 -33 -28 0 -57 -4
-64 -8 -25 -17 -62 -77 -62 -102 0 -23 4 -27 29 -28 16 0 35 6 42 14 15 18 30
18 23 -1 -5 -12 5 -15 59 -15 56 0 70 4 96 26 17 14 36 43 42 64 15 49 60 104
111 136 41 26 68 73 68 119 0 17 4 24 11 19 12 -7 8 78 -6 124 -6 17 -3 22 11
22 30 1 -60 77 -131 111 -58 28 -122 36 -180 22z"/>
<path d="M4430 1425 c-10 -12 -10 -18 1 -31 12 -15 15 -14 32 7 14 17 15 24 5
30 -18 12 -24 11 -38 -6z"/>
<path d="M4257 1169 c-26 -15 -20 -43 14 -68 32 -24 55 -22 65 4 12 30 -50 80
-79 64z"/>
<path d="M944 1059 c-10 -17 23 -46 37 -32 7 7 9 19 6 27 -7 18 -33 21 -43 5z"/>
<path d="M4092 1008 c-18 -18 -15 -32 17 -62 30 -29 71 -33 79 -8 4 13 -59 82
-75 82 -5 0 -14 -5 -21 -12z"/>
<path d="M3944 876 c-3 -8 -2 -21 3 -30 7 -12 11 -12 27 -1 11 8 16 21 13 30
-8 19 -36 20 -43 1z"/>
<path d="M1556 601 c-25 -28 -27 -94 -4 -99 11 -2 25 9 38 30 37 59 8 116 -34
69z"/>
<path d="M3290 446 c-14 -18 -6 -50 13 -44 15 6 22 37 10 49 -6 6 -15 4 -23
-5z"/>
<path d="M2020 435 c-10 -12 -8 -16 11 -24 28 -10 44 1 36 23 -8 20 -31 21
-47 1z"/>
<path d="M2300 381 c-24 -46 -2 -111 34 -98 16 6 30 69 21 97 -8 26 -41 26
-55 1z"/>
</g>
</svg>
