<svg width="12" height="12" viewBox="0 0 12 12" fill="none" xmlns="http://www.w3.org/2000/svg">
<path d="M6 3.3C6.55228 3.3 7 2.89706 7 2.4C7 1.90294 6.55228 1.5 6 1.5C5.44772 1.5 5 1.90294 5 2.4C5 2.89706 5.44772 3.3 6 3.3Z" fill="#24282D"/>
<path d="M6 6.9C6.55228 6.9 7 6.49706 7 6C7 5.50294 6.55228 5.1 6 5.1C5.44772 5.1 5 5.50294 5 6C5 6.49706 5.44772 6.9 6 6.9Z" fill="#24282D"/>
<path d="M6 10.5C6.55228 10.5 7 10.0971 7 9.6C7 9.10294 6.55228 8.7 6 8.7C5.44772 8.7 5 9.10294 5 9.6C5 10.0971 5.44772 10.5 6 10.5Z" fill="#24282D"/>
</svg>
