<svg width="14" height="14" viewBox="0 0 14 14" fill="none" xmlns="http://www.w3.org/2000/svg">
<mask id="path-1-inside-1_0_252" fill="white">
<path fill-rule="evenodd" clip-rule="evenodd" d="M11.6957 3.70507C11.8269 3.83634 11.9006 4.01436 11.9006 4.19997C11.9006 4.38559 11.8269 4.5636 11.6957 4.69487L6.09567 10.2949C5.9644 10.4261 5.78639 10.4998 5.60077 10.4998C5.41516 10.4998 5.23714 10.4261 5.10587 10.2949L2.30587 7.49487C2.17836 7.36285 2.10781 7.18603 2.1094 7.00249C2.111 6.81895 2.18461 6.64339 2.3144 6.5136C2.44419 6.38381 2.61975 6.3102 2.80329 6.3086C2.98683 6.30701 3.16365 6.37756 3.29567 6.50507L5.60077 8.81017L10.7059 3.70507C10.8371 3.57384 11.0152 3.50012 11.2008 3.50012C11.3864 3.50012 11.5644 3.57384 11.6957 3.70507Z"/>
</mask>
<path fill-rule="evenodd" clip-rule="evenodd" d="M11.6957 3.70507C11.8269 3.83634 11.9006 4.01436 11.9006 4.19997C11.9006 4.38559 11.8269 4.5636 11.6957 4.69487L6.09567 10.2949C5.9644 10.4261 5.78639 10.4998 5.60077 10.4998C5.41516 10.4998 5.23714 10.4261 5.10587 10.2949L2.30587 7.49487C2.17836 7.36285 2.10781 7.18603 2.1094 7.00249C2.111 6.81895 2.18461 6.64339 2.3144 6.5136C2.44419 6.38381 2.61975 6.3102 2.80329 6.3086C2.98683 6.30701 3.16365 6.37756 3.29567 6.50507L5.60077 8.81017L10.7059 3.70507C10.8371 3.57384 11.0152 3.50012 11.2008 3.50012C11.3864 3.50012 11.5644 3.57384 11.6957 3.70507Z" fill="#1F2A37"/>
<path d="M11.6957 3.70507L12.7565 2.64457L12.7562 2.64425L11.6957 3.70507ZM11.9006 4.19997H13.4006H11.9006ZM11.6957 4.69487L12.7563 5.75553L12.7565 5.75537L11.6957 4.69487ZM6.09567 10.2949L7.15617 11.3557L7.15633 11.3555L6.09567 10.2949ZM5.10587 10.2949L4.04521 11.3555L4.04537 11.3557L5.10587 10.2949ZM2.30587 7.49487L1.22694 8.53694L1.236 8.54632L1.24521 8.55553L2.30587 7.49487ZM3.29567 6.50507L4.35633 5.44441L4.34712 5.4352L4.33774 5.42614L3.29567 6.50507ZM5.60077 8.81017L4.54011 9.87083L5.60077 10.9315L6.66143 9.87083L5.60077 8.81017ZM10.7059 3.70507L9.64537 2.64425L9.64521 2.64441L10.7059 3.70507ZM11.2008 3.50012V5.00012V3.50012ZM10.6349 4.76557C10.4849 4.61555 10.4006 4.4121 10.4006 4.19997H13.4006C13.4006 3.61661 13.1689 3.05714 12.7565 2.64457L10.6349 4.76557ZM10.4006 4.19997C10.4006 3.98784 10.4849 3.7844 10.6349 3.63437L12.7565 5.75537C13.1689 5.34281 13.4006 4.78333 13.4006 4.19997H10.4006ZM10.635 3.63421L5.03501 9.23421L7.15633 11.3555L12.7563 5.75553L10.635 3.63421ZM5.03517 9.23405C5.18519 9.08408 5.38864 8.99982 5.60077 8.99982V11.9998C6.18414 11.9998 6.74361 11.7681 7.15617 11.3557L5.03517 9.23405ZM5.60077 8.99982C5.81291 8.99982 6.01635 9.08408 6.16637 9.23405L4.04537 11.3557C4.45793 11.7681 5.01741 11.9998 5.60077 11.9998V8.99982ZM6.16653 9.23421L3.36653 6.43421L1.24521 8.55553L4.04521 11.3555L6.16653 9.23421ZM3.38481 6.4528C3.53053 6.60369 3.61117 6.80577 3.60934 7.01553L0.609458 6.98946C0.604446 7.56629 0.826194 8.12202 1.22694 8.53694L3.38481 6.4528ZM3.60934 7.01553C3.60752 7.22528 3.52339 7.42593 3.37506 7.57426L1.25374 5.45294C0.845842 5.86084 0.614471 6.41263 0.609458 6.98946L3.60934 7.01553ZM3.37506 7.57426C3.22673 7.72259 3.02608 7.80672 2.81633 7.80854L2.79026 4.80866C2.21343 4.81367 1.66164 5.04504 1.25374 5.45294L3.37506 7.57426ZM2.81633 7.80854C2.60657 7.81037 2.40449 7.72973 2.25361 7.584L4.33774 5.42614C3.92282 5.02539 3.36709 4.80365 2.79026 4.80866L2.81633 7.80854ZM2.23501 7.56573L4.54011 9.87083L6.66143 7.74951L4.35633 5.44441L2.23501 7.56573ZM6.66143 9.87083L11.7665 4.76573L9.64521 2.64441L4.54011 7.74951L6.66143 9.87083ZM11.7664 4.76589C11.6164 4.91587 11.4129 5.00012 11.2008 5.00012V2.00012C10.6174 2.00012 10.0579 2.23182 9.64537 2.64425L11.7664 4.76589ZM11.2008 5.00012C10.9886 5.00012 10.7852 4.91587 10.6352 4.76589L12.7562 2.64425C12.3436 2.23182 11.7841 2.00012 11.2008 2.00012V5.00012Z" fill="white" mask="url(#path-1-inside-1_0_252)"/>
</svg>
