<svg width="20" height="20" viewBox="0 0 20 20" fill="none" xmlns="http://www.w3.org/2000/svg">
<path d="M15.883 5.83335H4.1183C3.91029 5.83335 3.71079 5.74556 3.5637 5.58928C3.41662 5.433 3.33398 5.22103 3.33398 5.00002C3.33398 4.77901 3.41662 4.56705 3.5637 4.41076C3.71079 4.25448 3.91029 4.16669 4.1183 4.16669H15.883C16.091 4.16669 16.2905 4.25448 16.4376 4.41076C16.5847 4.56705 16.6673 4.77901 16.6673 5.00002C16.6673 5.22103 16.5847 5.433 16.4376 5.58928C16.2905 5.74556 16.091 5.83335 15.883 5.83335Z" fill="#3669C9"/>
<path d="M15.883 10.8334H4.1183C3.91029 10.8334 3.71079 10.7456 3.5637 10.5893C3.41662 10.433 3.33398 10.221 3.33398 10C3.33398 9.77901 3.41662 9.56705 3.5637 9.41077C3.71079 9.25448 3.91029 9.16669 4.1183 9.16669H15.883C16.091 9.16669 16.2905 9.25448 16.4376 9.41077C16.5847 9.56705 16.6673 9.77901 16.6673 10C16.6673 10.221 16.5847 10.433 16.4376 10.5893C16.2905 10.7456 16.091 10.8334 15.883 10.8334Z" fill="#3669C9"/>
<path d="M15.883 15.8334H4.1183C3.91029 15.8334 3.71079 15.7456 3.5637 15.5893C3.41662 15.433 3.33398 15.221 3.33398 15C3.33398 14.779 3.41662 14.567 3.5637 14.4108C3.71079 14.2545 3.91029 14.1667 4.1183 14.1667H15.883C16.091 14.1667 16.2905 14.2545 16.4376 14.4108C16.5847 14.567 16.6673 14.779 16.6673 15C16.6673 15.221 16.5847 15.433 16.4376 15.5893C16.2905 15.7456 16.091 15.8334 15.883 15.8334Z" fill="#3669C9"/>
</svg>
